<svg xmlns="http://www.w3.org/2000/svg" version="1.1" xmlns:xlink="http://www.w3.org/1999/xlink" xmlns:svgjs="http://svgjs.com/svgjs" width="1440" height="560" preserveAspectRatio="none" viewBox="0 0 1440 560"><g mask="url(&quot;#SvgjsMask1000&quot;)" fill="none"><rect width="1440" height="560" x="0" y="0" fill="#0e2a47"></rect><path d="M1121 488L1120 675" stroke-width="8" stroke="url(#SvgjsLinearGradient1001)" stroke-linecap="round" class="Down"></path><path d="M668 415L667 766" stroke-width="8" stroke="url(#SvgjsLinearGradient1001)" stroke-linecap="round" class="Down"></path><path d="M782 512L781 777" stroke-width="10" stroke="url(#SvgjsLinearGradient1002)" stroke-linecap="round" class="Up"></path><path d="M55 435L54 653" stroke-width="6" stroke="url(#SvgjsLinearGradient1001)" stroke-linecap="round" class="Down"></path><path d="M12 237L11 32" stroke-width="8" stroke="url(#SvgjsLinearGradient1002)" stroke-linecap="round" class="Up"></path><path d="M639 214L638 -127" stroke-width="6" stroke="url(#SvgjsLinearGradient1001)" stroke-linecap="round" class="Down"></path><path d="M862 410L861 622" stroke-width="10" stroke="url(#SvgjsLinearGradient1002)" stroke-linecap="round" class="Up"></path><path d="M773 559L772 976" stroke-width="8" stroke="url(#SvgjsLinearGradient1002)" stroke-linecap="round" class="Up"></path><path d="M411 160L410 517" stroke-width="10" stroke="url(#SvgjsLinearGradient1002)" stroke-linecap="round" class="Up"></path><path d="M988 81L987 -156" stroke-width="10" stroke="url(#SvgjsLinearGradient1002)" stroke-linecap="round" class="Up"></path><path d="M802 70L801 -149" stroke-width="6" stroke="url(#SvgjsLinearGradient1001)" stroke-linecap="round" class="Down"></path><path d="M607 120L606 449" stroke-width="8" stroke="url(#SvgjsLinearGradient1002)" stroke-linecap="round" class="Up"></path><path d="M135 397L134 592" stroke-width="6" stroke="url(#SvgjsLinearGradient1001)" stroke-linecap="round" class="Down"></path><path d="M544 167L543 -211" stroke-width="10" stroke="url(#SvgjsLinearGradient1001)" stroke-linecap="round" class="Down"></path><path d="M280 523L279 275" stroke-width="8" stroke="url(#SvgjsLinearGradient1002)" stroke-linecap="round" class="Up"></path><path d="M1223 437L1222 109" stroke-width="10" stroke="url(#SvgjsLinearGradient1002)" stroke-linecap="round" class="Up"></path><path d="M845 37L844 289" stroke-width="6" stroke="url(#SvgjsLinearGradient1002)" stroke-linecap="round" class="Up"></path><path d="M819 216L818 530" stroke-width="10" stroke="url(#SvgjsLinearGradient1001)" stroke-linecap="round" class="Down"></path><path d="M194 186L193 386" stroke-width="8" stroke="url(#SvgjsLinearGradient1002)" stroke-linecap="round" class="Up"></path><path d="M883 186L882 487" stroke-width="6" stroke="url(#SvgjsLinearGradient1001)" stroke-linecap="round" class="Down"></path><path d="M353 451L352 142" stroke-width="8" stroke="url(#SvgjsLinearGradient1002)" stroke-linecap="round" class="Up"></path><path d="M1190 349L1189 528" stroke-width="10" stroke="url(#SvgjsLinearGradient1002)" stroke-linecap="round" class="Up"></path><path d="M617 403L616 178" stroke-width="6" stroke="url(#SvgjsLinearGradient1001)" stroke-linecap="round" class="Down"></path><path d="M763 447L762 187" stroke-width="6" stroke="url(#SvgjsLinearGradient1001)" stroke-linecap="round" class="Down"></path><path d="M1074 40L1073 266" stroke-width="8" stroke="url(#SvgjsLinearGradient1001)" stroke-linecap="round" class="Down"></path><path d="M158 238L157 -144" stroke-width="6" stroke="url(#SvgjsLinearGradient1002)" stroke-linecap="round" class="Up"></path><path d="M1319 399L1318 571" stroke-width="6" stroke="url(#SvgjsLinearGradient1001)" stroke-linecap="round" class="Down"></path><path d="M1154 279L1153 485" stroke-width="10" stroke="url(#SvgjsLinearGradient1001)" stroke-linecap="round" class="Down"></path><path d="M970 152L969 443" stroke-width="8" stroke="url(#SvgjsLinearGradient1002)" stroke-linecap="round" class="Up"></path><path d="M877 86L876 -312" stroke-width="10" stroke="url(#SvgjsLinearGradient1002)" stroke-linecap="round" class="Up"></path><path d="M731 298L730 584" stroke-width="8" stroke="url(#SvgjsLinearGradient1001)" stroke-linecap="round" class="Down"></path><path d="M484 464L483 607" stroke-width="10" stroke="url(#SvgjsLinearGradient1002)" stroke-linecap="round" class="Up"></path><path d="M1415 113L1414 470" stroke-width="10" stroke="url(#SvgjsLinearGradient1001)" stroke-linecap="round" class="Down"></path><path d="M510 83L509 -222" stroke-width="8" stroke="url(#SvgjsLinearGradient1002)" stroke-linecap="round" class="Up"></path><path d="M812 142L811 -256" stroke-width="6" stroke="url(#SvgjsLinearGradient1002)" stroke-linecap="round" class="Up"></path><path d="M227 298L226 -58" stroke-width="6" stroke="url(#SvgjsLinearGradient1002)" stroke-linecap="round" class="Up"></path></g><defs><mask id="SvgjsMask1000"><rect width="1440" height="560" fill="#ffffff"></rect></mask><linearGradient x1="0%" y1="0%" x2="0%" y2="100%" id="SvgjsLinearGradient1001"><stop stop-color="rgba(28, 83, 142, 0)" offset="0"></stop><stop stop-color="#1c538e" offset="1"></stop></linearGradient><linearGradient x1="0%" y1="100%" x2="0%" y2="0%" id="SvgjsLinearGradient1002"><stop stop-color="rgba(28, 83, 142, 0)" offset="0"></stop><stop stop-color="#1c538e" offset="1"></stop></linearGradient></defs></svg>